<svg xmlns="http://www.w3.org/2000/svg" viewBox="0 0 24 24">
  <title>Instagram</title>
  <path d="M16,14a4,4,0,1,0-4,4A4,4,0,0,0,16,14Zm2.2,0A6.2,6.2,0,1,1,12,7.8,6.1,6.1,0,0,1,18.2,14Zm1.7-6.4a1.4,1.4,0,1,1-1.4-1.4A1.4,1.4,0,0,1,19.8,7.6ZM12,4.2c-1.7,0-5.5-.1-7.1.5a3.8,3.8,0,0,0-1.4.9,3.8,3.8,0,0,0-.9,1.4C2,8.5,2.2,12.2,2.2,14s-.1,5.5.5,7.1a3.8,3.8,0,0,0,.9,1.4,3.8,3.8,0,0,0,1.4.9c1.6.6,5.3.5,7.1.5s5.5.1,7.1-.5a4.1,4.1,0,0,0,2.3-2.3c.6-1.6.5-5.3.5-7.1s.1-5.5-.5-7.1a3.8,3.8,0,0,0-.9-1.4,3.8,3.8,0,0,0-1.4-.9C17.5,4,13.7,4.2,12,4.2ZM24,14c0,1.7,0,3.3-.1,5A7.1,7.1,0,0,1,22,24a7.1,7.1,0,0,1-5,1.9H7A7.1,7.1,0,0,1,2,24,7.1,7.1,0,0,1,.1,19C0,17.3,0,15.7,0,14s0-3.3.1-5A7.1,7.1,0,0,1,2,4,7.1,7.1,0,0,1,7,2.1H17A7.1,7.1,0,0,1,22,4a7.1,7.1,0,0,1,1.9,5C24,10.7,24,12.3,24,14Z" transform="translate(0 -2)"/>
</svg>
