<svg xmlns="http://www.w3.org/2000/svg" viewBox="0 0 24 24">
  <title>Spotify</title>
  <path d="M17.6,18.9a.8.8,0,0,0-.5-.8,13.4,13.4,0,0,0-7-1.8,20.6,20.6,0,0,0-4.5.5.8.8,0,0,0-.7.8.8.8,0,0,0,.8.8h.6a19,19,0,0,1,3.8-.4,12.1,12.1,0,0,1,6.2,1.6l.5.2a.7.7,0,0,0,.7-.7Zm1.5-3.4a1,1,0,0,0-.5-1A16.9,16.9,0,0,0,10,12.4a16.4,16.4,0,0,0-4.7.7,1,1,0,0,0-.7,1,.9.9,0,0,0,.9.9H6a14.9,14.9,0,0,1,3.9-.5,15.2,15.2,0,0,1,7.6,1.9l.6.2a.9.9,0,0,0,.9-.9Zm1.7-3.9a1.1,1.1,0,0,0-.6-1.1,20.4,20.4,0,0,0-9.9-2.3A20.2,20.2,0,0,0,4.5,9a1.1,1.1,0,0,0-.8,1.2,1.1,1.1,0,0,0,1.1,1.1h.6a18,18,0,0,1,4.8-.6,18.3,18.3,0,0,1,8.8,2l.6.2a1.1,1.1,0,0,0,1.1-1.1ZM24,14A12,12,0,1,1,12,2,12,12,0,0,1,24,14Z" transform="translate(0 -2)"/>
</svg>
