<svg xmlns="http://www.w3.org/2000/svg" viewBox="0 0 24 24">
  <title>Twitter</title>
  <path d="M20,9.5l-1.9.5a3.3,3.3,0,0,0,1.5-1.8,6.5,6.5,0,0,1-2.1.8,3.3,3.3,0,0,0-5.7,2.3,3,3,0,0,0,.1.8A9.3,9.3,0,0,1,5.1,8.6a3.3,3.3,0,0,0-.5,1.7A3.2,3.2,0,0,0,6.1,13a3.9,3.9,0,0,1-1.6-.4h0a3.3,3.3,0,0,0,2.7,3.2H5.8a3.3,3.3,0,0,0,3.1,2.3,6.6,6.6,0,0,1-4.1,1.4H4a9.3,9.3,0,0,0,14.4-7.9,3.7,3.7,0,0,0,0-.4A6.3,6.3,0,0,0,20,9.5Zm4-3v15A4.5,4.5,0,0,1,19.5,26H4.5A4.5,4.5,0,0,1,0,21.5V6.5A4.5,4.5,0,0,1,4.5,2h15A4.5,4.5,0,0,1,24,6.5Z" transform="translate(0 -2)"/>
</svg>
