<svg xmlns="http://www.w3.org/2000/svg" viewBox="0 0 24 24">
  <title>Vimeo</title>
  <path d="M20.2,10c.1-2.3-.7-3.4-2.5-3.5s-4,1.3-4.9,4.1l1.3-.3c.9,0,1.3.5,1.2,1.5a6.7,6.7,0,0,1-1.2,2.6c-.7,1.2-1.3,1.7-1.6,1.7s-.9-.9-1.3-2.6-.4-1.8-.7-4S9.3,6.6,8,6.7A5.7,5.7,0,0,0,5.4,8.3L2.9,10.5l.8,1L5,10.8c.6,0,1.2.9,1.7,2.8l1.4,5.1c.7,1.9,1.5,2.8,2.6,2.8s3.6-1.5,6-4.6,3.5-5.3,3.5-6.9ZM24,6.5v15A4.5,4.5,0,0,1,19.5,26H4.5A4.5,4.5,0,0,1,0,21.5V6.5A4.5,4.5,0,0,1,4.5,2h15A4.5,4.5,0,0,1,24,6.5Z" transform="translate(0 -2)"/>
</svg>
