<svg xmlns="http://www.w3.org/2000/svg" viewBox="0 0 31.8 32">
  <title>Whatsapp</title>
  <path d="M27.3,4.7a15.9,15.9,0,0,0-25,19.1L.1,32l8.4-2.2a15.9,15.9,0,0,0,7.6,1.9h0A15.9,15.9,0,0,0,27.3,4.7ZM16.1,29h0a13.2,13.2,0,0,1-6.7-1.8l-.5-.3-5,1.3,1.3-4.9-.3-.5A13.2,13.2,0,0,1,25.4,6.5,13.2,13.2,0,0,1,16.1,29Zm7.2-9.9-2.7-1.3c-.4-.1-.6-.2-.9.2l-1.3,1.6c-.2.3-.5.3-.9.1a10.9,10.9,0,0,1-3.2-2A12.1,12.1,0,0,1,12.2,15c-.2-.4,0-.6.2-.8l.6-.7a2.6,2.6,0,0,0,.4-.7.7.7,0,0,0,0-.7L12.1,9.2c-.3-.8-.6-.7-.9-.7h-.8A1.5,1.5,0,0,0,9.4,9,4.4,4.4,0,0,0,8,12.3a7.7,7.7,0,0,0,1.6,4.1c.2.3,2.8,4.3,6.8,6l2.3.8a5.5,5.5,0,0,0,2.5.2,4.1,4.1,0,0,0,2.7-1.9,3.3,3.3,0,0,0,.2-1.9c-.1-.2-.4-.3-.8-.5Z" transform="translate(-0.1)"/>
</svg>
