<svg xmlns="http://www.w3.org/2000/svg" viewBox="0 0 28 19.7">
  <title>Youtube</title>
  <path d="M11.1,17.6l7.6-3.9-7.6-4ZM14,4.2c5.9,0,9.8.3,9.8.3a4,4,0,0,1,2.8,1.2,4.9,4.9,0,0,1,1.1,2.8,37.8,37.8,0,0,1,.3,4.5v2.1a37.8,37.8,0,0,1-.3,4.5,5,5,0,0,1-1.1,2.8,4,4,0,0,1-2.8,1.2s-3.9.3-9.8.3h0c-7.3-.1-9.5-.3-9.5-.3a4.7,4.7,0,0,1-3.1-1.2A5,5,0,0,1,.3,19.6,37.8,37.8,0,0,1,0,15.1V12.9A37.8,37.8,0,0,1,.3,8.4,4.9,4.9,0,0,1,1.4,5.6,4,4,0,0,1,4.2,4.4s3.9-.3,9.8-.3h0Z" transform="translate(0 -4.2)"/>
</svg>
